<?xml version="1.0" encoding="UTF-8" standalone="no"?>
<!DOCTYPE svg PUBLIC "-//W3C//DTD SVG 1.1//EN"
 "http://www.w3.org/Graphics/SVG/1.1/DTD/svg11.dtd">
<!-- Generated by graphviz version 2.44.1 (20200629.0846)
 -->
<!-- Title: g Pages: 1 -->
<svg width="3111pt" height="783pt"
 viewBox="0.00 0.00 3111.00 782.60" xmlns="http://www.w3.org/2000/svg" xmlns:xlink="http://www.w3.org/1999/xlink">
<g id="graph0" class="graph" transform="scale(1 1) rotate(0) translate(4 778.6)">
<title>g</title>
<polygon fill="white" stroke="transparent" points="-4,4 -4,-778.6 3107,-778.6 3107,4 -4,4"/>
<g id="clust1" class="cluster">
<title>cluster_718837726</title>
<polygon fill="#ececec" stroke="black" points="8,-8 8,-588.2 1777,-588.2 1777,-8 8,-8"/>
<text text-anchor="middle" x="42.43" y="-571.6" font-family="Times New Roman,serif" font-size="14.00">advanced</text>
</g>
<g id="clust3" class="cluster">
<title>cluster_187709838</title>
<polygon fill="#d8d8d8" stroke="black" points="626,-127 626,-289.8 1769,-289.8 1769,-127 626,-127"/>
<text text-anchor="middle" x="639.45" y="-273.2" font-family="Times New Roman,serif" font-size="14.00">io</text>
</g>
<g id="clust2" class="cluster">
<title>cluster_10098514</title>
<polygon fill="#d8d8d8" stroke="black" points="16,-16 16,-253.8 618,-253.8 618,-16 16,-16"/>
<text text-anchor="middle" x="39.16" y="-237.2" font-family="Times New Roman,serif" font-size="14.00">pedal</text>
</g>
<g id="clust4" class="cluster">
<title>cluster_93166550</title>
<polygon fill="#ececec" stroke="black" points="2048,-651.8 2048,-766.6 2272,-766.6 2272,-651.8 2048,-651.8"/>
<text text-anchor="middle" x="2071.55" y="-750" font-family="Times New Roman,serif" font-size="14.00">audio</text>
</g>
<g id="clust5" class="cluster">
<title>cluster_93508654</title>
<polygon fill="#ececec" stroke="black" points="1785,-341.4 1785,-600.2 3095,-600.2 3095,-341.4 1785,-341.4"/>
<text text-anchor="middle" x="1807.38" y="-583.6" font-family="Times New Roman,serif" font-size="14.00">basic</text>
</g>
<!-- MultiEffectsProcessorUI258518842 -->
<g id="node1" class="node">
<title>MultiEffectsProcessorUI258518842</title>
<polygon fill="#ffffff" stroke="transparent" points="1034.5,-555.4 797.5,-555.4 797.5,-361.4 1034.5,-361.4 1034.5,-555.4"/>
<text text-anchor="start" x="803" y="-537.8" font-family="Times New Roman,serif" font-size="14.00">(C)MultiEffectsProcessorUI</text>
<text text-anchor="start" x="803" y="-513.8" font-family="Times New Roman,serif" font-size="14.00">&#45; closeAudioProcessing()</text>
<text text-anchor="start" x="803" y="-489.8" font-family="Times New Roman,serif" font-size="14.00">&#45; initActionListener()</text>
<text text-anchor="start" x="803" y="-465.8" font-family="Times New Roman,serif" font-size="14.00">&#45; initObject()</text>
<text text-anchor="start" x="803" y="-441.8" font-family="Times New Roman,serif" font-size="14.00">&#45; initPedalFrame()</text>
<text text-anchor="start" x="803" y="-417.8" font-family="Times New Roman,serif" font-size="14.00">&#45; initialize()</text>
<text text-anchor="start" x="803" y="-393.8" font-family="Times New Roman,serif" font-size="14.00">&#45; startAudioProcessing()</text>
<text text-anchor="start" x="802.98" y="-369.8" font-family="Times New Roman,serif" font-size="14.00">&#45; updateStatusMessage(message: String)</text>
<polygon fill="black" stroke="black" points="798,-530.4 798,-530.4 1035,-530.4 1035,-530.4 798,-530.4"/>
<polygon fill="none" stroke="black" points="797.5,-361.4 797.5,-555.4 1034.5,-555.4 1034.5,-361.4 797.5,-361.4"/>
</g>
<!-- Pedal1796506170 -->
<g id="node6" class="node">
<title>Pedal1796506170</title>
<polygon fill="#ffffff" stroke="transparent" points="609.5,-221 426.5,-221 426.5,-171 609.5,-171 609.5,-221"/>
<text text-anchor="start" x="432" y="-203.4" font-family="Times New Roman,serif" font-size="14.00">(C)Pedal</text>
<text text-anchor="start" x="431.94" y="-179.4" font-family="Times New Roman,serif" font-size="14.00">+ process(input: byte[]): byte[]</text>
<polygon fill="black" stroke="black" points="427,-196 427,-196 610,-196 610,-196 427,-196"/>
<polygon fill="none" stroke="black" points="426.5,-171 426.5,-221 609.5,-221 609.5,-171 426.5,-171"/>
</g>
<!-- MultiEffectsProcessorUI258518842&#45;&gt;Pedal1796506170 -->
<g id="edge11" class="edge">
<title>MultiEffectsProcessorUI258518842&#45;&gt;Pedal1796506170</title>
<path fill="none" stroke="black" d="M797.4,-409.59C708.99,-373.94 603.47,-331.4 603.47,-331.4 603.47,-331.4 564.05,-269.42 538.75,-229.64"/>
<polygon fill="black" stroke="black" points="541.6,-227.59 533.28,-221.03 535.69,-231.34 541.6,-227.59"/>
<text text-anchor="middle" x="635.27" y="-318.8" font-family="Times New Roman,serif" font-size="14.00">compressor</text>
<text text-anchor="middle" x="635.27" y="-302" font-family="Times New Roman,serif" font-size="14.00">[0..1]</text>
</g>
<!-- MultiEffectsProcessorUI258518842&#45;&gt;Pedal1796506170 -->
<g id="edge12" class="edge">
<title>MultiEffectsProcessorUI258518842&#45;&gt;Pedal1796506170</title>
<path fill="none" stroke="black" d="M797.49,-382.1C755.13,-355.2 717.68,-331.4 717.68,-331.4 717.68,-331.4 668,-297.8 668,-297.8 668,-297.8 622,-289.8 622,-289.8 622,-289.8 582.79,-254.82 552.53,-227.81"/>
<polygon fill="black" stroke="black" points="554.84,-225.19 545.05,-221.14 550.18,-230.41 554.84,-225.19"/>
<text text-anchor="middle" x="732.16" y="-318.8" font-family="Times New Roman,serif" font-size="14.00">delay</text>
<text text-anchor="middle" x="732.16" y="-302" font-family="Times New Roman,serif" font-size="14.00">[0..1]</text>
</g>
<!-- MultiEffectsProcessorUI258518842&#45;&gt;Pedal1796506170 -->
<g id="edge13" class="edge">
<title>MultiEffectsProcessorUI258518842&#45;&gt;Pedal1796506170</title>
<path fill="none" stroke="black" d="M807.16,-361.26C787.64,-344.01 773.36,-331.4 773.36,-331.4 773.36,-331.4 748,-297.8 748,-297.8 748,-297.8 622,-289.8 622,-289.8 622,-289.8 582.79,-254.82 552.53,-227.81"/>
<polygon fill="black" stroke="black" points="554.84,-225.19 545.05,-221.14 550.18,-230.41 554.84,-225.19"/>
<text text-anchor="middle" x="799.82" y="-318.8" font-family="Times New Roman,serif" font-size="14.00">overdrive</text>
<text text-anchor="middle" x="799.82" y="-302" font-family="Times New Roman,serif" font-size="14.00">[0..1]</text>
</g>
<!-- FileIn658507866 -->
<g id="node7" class="node">
<title>FileIn658507866</title>
<polygon fill="#ffffff" stroke="transparent" points="911.5,-257 634.5,-257 634.5,-135 911.5,-135 911.5,-257"/>
<text text-anchor="start" x="640" y="-239.4" font-family="Times New Roman,serif" font-size="14.00">(C)FileIn</text>
<text text-anchor="start" x="640" y="-215.4" font-family="Times New Roman,serif" font-size="14.00">+ close()</text>
<text text-anchor="start" x="639.9" y="-191.4" font-family="Times New Roman,serif" font-size="14.00">+ read(buffer: byte[], offset: int, length: int): int</text>
<text text-anchor="start" x="640" y="-167.4" font-family="Times New Roman,serif" font-size="14.00">+ reset()</text>
<text text-anchor="start" x="640" y="-143.4" font-family="Times New Roman,serif" font-size="14.00">+ start()</text>
<polygon fill="black" stroke="black" points="635,-232 635,-232 912,-232 912,-232 635,-232"/>
<polygon fill="none" stroke="black" points="634.5,-135 634.5,-257 911.5,-257 911.5,-135 634.5,-135"/>
</g>
<!-- MultiEffectsProcessorUI258518842&#45;&gt;FileIn658507866 -->
<g id="edge7" class="edge">
<title>MultiEffectsProcessorUI258518842&#45;&gt;FileIn658507866</title>
<path fill="none" stroke="black" d="M863.16,-361.18C844.06,-326.41 823.06,-288.16 806.13,-257.33"/>
</g>
<!-- FileOut658507866 -->
<g id="node8" class="node">
<title>FileOut658507866</title>
<polygon fill="#ffffff" stroke="transparent" points="1188.5,-245 929.5,-245 929.5,-147 1188.5,-147 1188.5,-245"/>
<text text-anchor="start" x="935" y="-227.4" font-family="Times New Roman,serif" font-size="14.00">(C)FileOut</text>
<text text-anchor="start" x="935" y="-203.4" font-family="Times New Roman,serif" font-size="14.00">+ close()</text>
<text text-anchor="start" x="935" y="-179.4" font-family="Times New Roman,serif" font-size="14.00">+ start()</text>
<text text-anchor="start" x="934.65" y="-155.4" font-family="Times New Roman,serif" font-size="14.00">+ write(buffer: byte[], offset: int, length: int)</text>
<polygon fill="black" stroke="black" points="930,-220 930,-220 1189,-220 1189,-220 930,-220"/>
<polygon fill="none" stroke="black" points="929.5,-147 929.5,-245 1188.5,-245 1188.5,-147 929.5,-147"/>
</g>
<!-- MultiEffectsProcessorUI258518842&#45;&gt;FileOut658507866 -->
<g id="edge8" class="edge">
<title>MultiEffectsProcessorUI258518842&#45;&gt;FileOut658507866</title>
<path fill="none" stroke="black" d="M968.84,-361.18C990.56,-321.62 1014.75,-277.57 1032.6,-245.07"/>
</g>
<!-- LineIn658507866 -->
<g id="node9" class="node">
<title>LineIn658507866</title>
<polygon fill="#ffffff" stroke="transparent" points="1483.5,-257 1206.5,-257 1206.5,-135 1483.5,-135 1483.5,-257"/>
<text text-anchor="start" x="1212" y="-239.4" font-family="Times New Roman,serif" font-size="14.00">(C)LineIn</text>
<text text-anchor="start" x="1212" y="-215.4" font-family="Times New Roman,serif" font-size="14.00">+ close()</text>
<text text-anchor="start" x="1211.9" y="-191.4" font-family="Times New Roman,serif" font-size="14.00">+ read(buffer: byte[], offset: int, length: int): int</text>
<text text-anchor="start" x="1212" y="-167.4" font-family="Times New Roman,serif" font-size="14.00">+ reset()</text>
<text text-anchor="start" x="1212" y="-143.4" font-family="Times New Roman,serif" font-size="14.00">+ start()</text>
<polygon fill="black" stroke="black" points="1207,-232 1207,-232 1484,-232 1484,-232 1207,-232"/>
<polygon fill="none" stroke="black" points="1206.5,-135 1206.5,-257 1483.5,-257 1483.5,-135 1206.5,-135"/>
</g>
<!-- MultiEffectsProcessorUI258518842&#45;&gt;LineIn658507866 -->
<g id="edge9" class="edge">
<title>MultiEffectsProcessorUI258518842&#45;&gt;LineIn658507866</title>
<path fill="none" stroke="black" d="M1034.78,-386.81C1111.84,-341 1198,-289.8 1198,-289.8 1198,-289.8 1221.57,-274.92 1249.83,-257.08"/>
</g>
<!-- LineOut658507866 -->
<g id="node10" class="node">
<title>LineOut658507866</title>
<polygon fill="#ffffff" stroke="transparent" points="1760.5,-245 1501.5,-245 1501.5,-147 1760.5,-147 1760.5,-245"/>
<text text-anchor="start" x="1507" y="-227.4" font-family="Times New Roman,serif" font-size="14.00">(C)LineOut</text>
<text text-anchor="start" x="1507" y="-203.4" font-family="Times New Roman,serif" font-size="14.00">+ close()</text>
<text text-anchor="start" x="1507" y="-179.4" font-family="Times New Roman,serif" font-size="14.00">+ start()</text>
<text text-anchor="start" x="1506.65" y="-155.4" font-family="Times New Roman,serif" font-size="14.00">+ write(buffer: byte[], offset: int, length: int)</text>
<polygon fill="black" stroke="black" points="1502,-220 1502,-220 1761,-220 1761,-220 1502,-220"/>
<polygon fill="none" stroke="black" points="1501.5,-147 1501.5,-245 1760.5,-245 1760.5,-147 1501.5,-147"/>
</g>
<!-- MultiEffectsProcessorUI258518842&#45;&gt;LineOut658507866 -->
<g id="edge10" class="edge">
<title>MultiEffectsProcessorUI258518842&#45;&gt;LineOut658507866</title>
<path fill="none" stroke="black" d="M1034.51,-422.98C1203.37,-373.93 1493,-289.8 1493,-289.8 1493,-289.8 1525.9,-267.67 1559.57,-245.03"/>
</g>
<!-- Oscilloscope258518842 -->
<g id="node2" class="node">
<title>Oscilloscope258518842</title>
<polygon fill="#ffffff" stroke="transparent" points="1769,-495.4 1669,-495.4 1669,-421.4 1769,-421.4 1769,-495.4"/>
<text text-anchor="start" x="1673.52" y="-477.8" font-family="Times New Roman,serif" font-size="14.00">(C)Oscilloscope</text>
<text text-anchor="start" x="1674" y="-453.8" font-family="Times New Roman,serif" font-size="14.00">&#45; startAudio()</text>
<text text-anchor="start" x="1674" y="-429.8" font-family="Times New Roman,serif" font-size="14.00">&#45; stopAudio()</text>
<polygon fill="black" stroke="black" points="1669,-470.4 1669,-470.4 1769,-470.4 1769,-470.4 1669,-470.4"/>
<polygon fill="none" stroke="black" points="1669,-421.4 1669,-495.4 1769,-495.4 1769,-421.4 1669,-421.4"/>
</g>
<!-- Compressor1796506170 -->
<g id="node3" class="node">
<title>Compressor1796506170</title>
<polygon fill="#ffffff" stroke="transparent" points="207.5,-98 24.5,-98 24.5,-24 207.5,-24 207.5,-98"/>
<text text-anchor="start" x="30" y="-80.4" font-family="Times New Roman,serif" font-size="14.00">(C)Compressor</text>
<text text-anchor="start" x="30" y="-56.4" font-family="Times New Roman,serif" font-size="14.00">&#45; &#160;&#160;level: int [1]</text>
<text text-anchor="start" x="29.94" y="-32.4" font-family="Times New Roman,serif" font-size="14.00">+ process(input: byte[]): byte[]</text>
<polygon fill="black" stroke="black" points="25,-73 25,-73 208,-73 208,-73 25,-73"/>
<polygon fill="black" stroke="black" points="25,-49 25,-49 208,-49 208,-49 25,-49"/>
<polygon fill="none" stroke="black" points="24.5,-24 24.5,-98 207.5,-98 207.5,-24 24.5,-24"/>
</g>
<!-- Delay1796506170 -->
<g id="node4" class="node">
<title>Delay1796506170</title>
<polygon fill="#ffffff" stroke="transparent" points="408.5,-86 225.5,-86 225.5,-36 408.5,-36 408.5,-86"/>
<text text-anchor="start" x="231" y="-68.4" font-family="Times New Roman,serif" font-size="14.00">(C)Delay</text>
<text text-anchor="start" x="230.94" y="-44.4" font-family="Times New Roman,serif" font-size="14.00">+ process(input: byte[]): byte[]</text>
<polygon fill="black" stroke="black" points="226,-61 226,-61 409,-61 409,-61 226,-61"/>
<polygon fill="none" stroke="black" points="225.5,-36 225.5,-86 408.5,-86 408.5,-36 225.5,-36"/>
</g>
<!-- Overdrive1796506170 -->
<g id="node5" class="node">
<title>Overdrive1796506170</title>
<polygon fill="#ffffff" stroke="transparent" points="609.5,-86 426.5,-86 426.5,-36 609.5,-36 609.5,-86"/>
<text text-anchor="start" x="432" y="-68.4" font-family="Times New Roman,serif" font-size="14.00">(C)Overdrive</text>
<text text-anchor="start" x="431.94" y="-44.4" font-family="Times New Roman,serif" font-size="14.00">+ process(input: byte[]): byte[]</text>
<polygon fill="black" stroke="black" points="427,-61 427,-61 610,-61 610,-61 427,-61"/>
<polygon fill="none" stroke="black" points="426.5,-36 426.5,-86 609.5,-86 609.5,-36 426.5,-36"/>
</g>
<!-- Pedal1796506170&#45;&gt;Compressor1796506170 -->
<g id="edge14" class="edge">
<title>Pedal1796506170&#45;&gt;Compressor1796506170</title>
<path fill="none" stroke="black" d="M433.36,-167.81C344.02,-139.12 216,-98 216,-98 216,-98 212.91,-96.89 207.82,-95.05"/>
<polygon fill="none" stroke="black" points="432.37,-171.17 442.96,-170.9 434.51,-164.51 432.37,-171.17"/>
</g>
<!-- Pedal1796506170&#45;&gt;Delay1796506170 -->
<g id="edge15" class="edge">
<title>Pedal1796506170&#45;&gt;Delay1796506170</title>
<path fill="none" stroke="black" d="M473.21,-165.37C437.16,-141.51 387.11,-108.39 353.47,-86.13"/>
<polygon fill="none" stroke="black" points="471.33,-168.32 481.6,-170.91 475.19,-162.48 471.33,-168.32"/>
</g>
<!-- Pedal1796506170&#45;&gt;Overdrive1796506170 -->
<g id="edge16" class="edge">
<title>Pedal1796506170&#45;&gt;Overdrive1796506170</title>
<path fill="none" stroke="black" d="M518,-160.76C518,-137.47 518,-107.21 518,-86.36"/>
<polygon fill="none" stroke="black" points="514.5,-160.91 518,-170.91 521.5,-160.91 514.5,-160.91"/>
</g>
<!-- Main93166550 -->
<g id="node11" class="node">
<title>Main93166550</title>
<polygon fill="#ffffff" stroke="transparent" points="2264,-733.8 2056,-733.8 2056,-659.8 2264,-659.8 2264,-733.8"/>
<text text-anchor="start" x="2061" y="-716.2" font-family="Times New Roman,serif" font-size="14.00">(C)Main</text>
<text text-anchor="start" x="2060.81" y="-692.2" font-family="Times New Roman,serif" font-size="14.00">+ actionPerformed(e: ActionEvent)</text>
<text text-anchor="start" x="2061" y="-668.2" font-family="Times New Roman,serif" font-size="14.00">+ main(args: String[])</text>
<polygon fill="black" stroke="black" points="2056,-708.8 2056,-708.8 2264,-708.8 2264,-708.8 2056,-708.8"/>
<polygon fill="none" stroke="black" points="2056,-659.8 2056,-733.8 2264,-733.8 2264,-659.8 2056,-659.8"/>
</g>
<!-- Main93166550&#45;&gt;MultiEffectsProcessorUI258518842 -->
<g id="edge4" class="edge">
<title>Main93166550&#45;&gt;MultiEffectsProcessorUI258518842</title>
<path fill="none" stroke="black" d="M2055.89,-681.12C1942.52,-665.13 1777.14,-641.8 1777.14,-641.8 1777.14,-641.8 1284.81,-537.52 1044.67,-486.65"/>
<polygon fill="black" stroke="black" points="1045.34,-483.22 1034.83,-484.57 1043.89,-490.07 1045.34,-483.22"/>
<text text-anchor="middle" x="1792.93" y="-629.2" font-family="Times New Roman,serif" font-size="14.00">effect</text>
<text text-anchor="middle" x="1792.93" y="-612.4" font-family="Times New Roman,serif" font-size="14.00">[0..1]</text>
</g>
<!-- Main93166550&#45;&gt;Oscilloscope258518842 -->
<g id="edge6" class="edge">
<title>Main93166550&#45;&gt;Oscilloscope258518842</title>
<path fill="none" stroke="black" d="M2055.94,-669.55C1943.74,-641.25 1781,-600.2 1781,-600.2 1781,-600.2 1757.19,-546.13 1739.08,-505"/>
<polygon fill="black" stroke="black" points="1742.2,-503.4 1734.97,-495.66 1735.79,-506.22 1742.2,-503.4"/>
<text text-anchor="middle" x="1962.05" y="-629.2" font-family="Times New Roman,serif" font-size="14.00">myScope</text>
<text text-anchor="middle" x="1962.05" y="-612.4" font-family="Times New Roman,serif" font-size="14.00">[0..1]</text>
</g>
<!-- AudioEditorGUI634084330 -->
<g id="node12" class="node">
<title>AudioEditorGUI634084330</title>
<polygon fill="#ffffff" stroke="transparent" points="2212.5,-543.4 1793.5,-543.4 1793.5,-373.4 2212.5,-373.4 2212.5,-543.4"/>
<text text-anchor="start" x="1799" y="-525.8" font-family="Times New Roman,serif" font-size="14.00">(C)AudioEditorGUI</text>
<text text-anchor="start" x="1799" y="-501.8" font-family="Times New Roman,serif" font-size="14.00">+ main(args: String[])</text>
<text text-anchor="start" x="1799" y="-477.8" font-family="Times New Roman,serif" font-size="14.00">&#45; mergeAudioFiles(files: File[])</text>
<text text-anchor="start" x="1799" y="-453.8" font-family="Times New Roman,serif" font-size="14.00">&#45; pauseAudio()</text>
<text text-anchor="start" x="1799" y="-429.8" font-family="Times New Roman,serif" font-size="14.00">&#45; playAudio()</text>
<text text-anchor="start" x="1799" y="-405.8" font-family="Times New Roman,serif" font-size="14.00">+ run()</text>
<text text-anchor="start" x="1798.98" y="-381.8" font-family="Times New Roman,serif" font-size="14.00">&#45; segmentAudioFile(inputFile: File, startTime: double, endTime: double)</text>
<polygon fill="black" stroke="black" points="1794,-518.4 1794,-518.4 2213,-518.4 2213,-518.4 1794,-518.4"/>
<polygon fill="none" stroke="black" points="1793.5,-373.4 1793.5,-543.4 2212.5,-543.4 2212.5,-373.4 1793.5,-373.4"/>
</g>
<!-- Main93166550&#45;&gt;AudioEditorGUI634084330 -->
<g id="edge1" class="edge">
<title>Main93166550&#45;&gt;AudioEditorGUI634084330</title>
<path fill="none" stroke="black" d="M2135.98,-659.64C2116.98,-631.02 2089.56,-589.74 2064.56,-552.09"/>
<polygon fill="black" stroke="black" points="2067.38,-550.01 2058.93,-543.61 2061.55,-553.88 2067.38,-550.01"/>
<text text-anchor="middle" x="2137.16" y="-629.2" font-family="Times New Roman,serif" font-size="14.00">edit</text>
<text text-anchor="middle" x="2137.16" y="-612.4" font-family="Times New Roman,serif" font-size="14.00">[0..1]</text>
</g>
<!-- AudioFileReader634084330 -->
<g id="node13" class="node">
<title>AudioFileReader634084330</title>
<polygon fill="#ffffff" stroke="transparent" points="2405,-567.4 2231,-567.4 2231,-349.4 2405,-349.4 2405,-567.4"/>
<text text-anchor="start" x="2236" y="-549.8" font-family="Times New Roman,serif" font-size="14.00">(C)AudioFileReader</text>
<text text-anchor="start" x="2236" y="-525.8" font-family="Times New Roman,serif" font-size="14.00">+ createGUI()</text>
<text text-anchor="start" x="2236" y="-501.8" font-family="Times New Roman,serif" font-size="14.00">+ main(args: String[])</text>
<text text-anchor="start" x="2236" y="-477.8" font-family="Times New Roman,serif" font-size="14.00">+ openFile()</text>
<text text-anchor="start" x="2236" y="-453.8" font-family="Times New Roman,serif" font-size="14.00">+ pauseAudio()</text>
<text text-anchor="start" x="2235.51" y="-429.8" font-family="Times New Roman,serif" font-size="14.00">+ playAudio(filePath: String)</text>
<text text-anchor="start" x="2236" y="-405.8" font-family="Times New Roman,serif" font-size="14.00">+ readFile()</text>
<text text-anchor="start" x="2236" y="-381.8" font-family="Times New Roman,serif" font-size="14.00">+ resumeAudio()</text>
<text text-anchor="start" x="2236" y="-357.8" font-family="Times New Roman,serif" font-size="14.00">+ stopAudio()</text>
<polygon fill="black" stroke="black" points="2231,-542.4 2231,-542.4 2405,-542.4 2405,-542.4 2231,-542.4"/>
<polygon fill="none" stroke="black" points="2231,-349.4 2231,-567.4 2405,-567.4 2405,-349.4 2231,-349.4"/>
</g>
<!-- Main93166550&#45;&gt;AudioFileReader634084330 -->
<g id="edge2" class="edge">
<title>Main93166550&#45;&gt;AudioFileReader634084330</title>
<path fill="none" stroke="black" d="M2184.17,-659.64C2199.3,-637 2219.73,-606.43 2240.06,-576.01"/>
<polygon fill="black" stroke="black" points="2243.14,-577.7 2245.79,-567.44 2237.32,-573.81 2243.14,-577.7"/>
<text text-anchor="middle" x="2244.15" y="-629.2" font-family="Times New Roman,serif" font-size="14.00">fileReader</text>
<text text-anchor="middle" x="2244.15" y="-612.4" font-family="Times New Roman,serif" font-size="14.00">[0..1]</text>
</g>
<!-- AudioMixer634084330 -->
<g id="node14" class="node">
<title>AudioMixer634084330</title>
<polygon fill="#ffffff" stroke="transparent" points="2861,-519.4 2423,-519.4 2423,-397.4 2861,-397.4 2861,-519.4"/>
<text text-anchor="start" x="2428" y="-501.8" font-family="Times New Roman,serif" font-size="14.00">(C)AudioMixer</text>
<text text-anchor="start" x="2428" y="-477.8" font-family="Times New Roman,serif" font-size="14.00">&#45; getMinimumLength(audioStreams: AudioInputStream[]): long</text>
<text text-anchor="start" x="2428" y="-453.8" font-family="Times New Roman,serif" font-size="14.00">+ main(args: String[])</text>
<text text-anchor="start" x="2428" y="-429.8" font-family="Times New Roman,serif" font-size="14.00">&#45; mixAudio()</text>
<text text-anchor="start" x="2427.97" y="-405.8" font-family="Times New Roman,serif" font-size="14.00">&#45; mixAudioStreams(audioStreams: AudioInputStream[]): AudioInputStream</text>
<polygon fill="black" stroke="black" points="2423,-494.4 2423,-494.4 2861,-494.4 2861,-494.4 2423,-494.4"/>
<polygon fill="none" stroke="black" points="2423,-397.4 2423,-519.4 2861,-519.4 2861,-397.4 2423,-397.4"/>
</g>
<!-- Main93166550&#45;&gt;AudioMixer634084330 -->
<g id="edge3" class="edge">
<title>Main93166550&#45;&gt;AudioMixer634084330</title>
<path fill="none" stroke="black" d="M2255.66,-659.79C2327.67,-632.69 2414,-600.2 2414,-600.2 2414,-600.2 2476.39,-561.67 2535.9,-524.92"/>
<polygon fill="black" stroke="black" points="2537.98,-527.75 2544.65,-519.52 2534.3,-521.8 2537.98,-527.75"/>
<text text-anchor="middle" x="2408.33" y="-629.2" font-family="Times New Roman,serif" font-size="14.00">mixer</text>
<text text-anchor="middle" x="2408.33" y="-612.4" font-family="Times New Roman,serif" font-size="14.00">[0..1]</text>
</g>
<!-- MyRecord634084330 -->
<g id="node15" class="node">
<title>MyRecord634084330</title>
<polygon fill="#ffffff" stroke="transparent" points="3087,-543.4 2879,-543.4 2879,-373.4 3087,-373.4 3087,-543.4"/>
<text text-anchor="start" x="2884" y="-525.8" font-family="Times New Roman,serif" font-size="14.00">(C)MyRecord</text>
<text text-anchor="start" x="2883.81" y="-501.8" font-family="Times New Roman,serif" font-size="14.00">+ actionPerformed(e: ActionEvent)</text>
<text text-anchor="start" x="2884" y="-477.8" font-family="Times New Roman,serif" font-size="14.00">+ capture()</text>
<text text-anchor="start" x="2884" y="-453.8" font-family="Times New Roman,serif" font-size="14.00">+ play()</text>
<text text-anchor="start" x="2884" y="-429.8" font-family="Times New Roman,serif" font-size="14.00">+ save()</text>
<text text-anchor="start" x="2884" y="-405.8" font-family="Times New Roman,serif" font-size="14.00">+ showgui()</text>
<text text-anchor="start" x="2884" y="-381.8" font-family="Times New Roman,serif" font-size="14.00">+ stop()</text>
<polygon fill="black" stroke="black" points="2879,-518.4 2879,-518.4 3087,-518.4 3087,-518.4 2879,-518.4"/>
<polygon fill="none" stroke="black" points="2879,-373.4 2879,-543.4 3087,-543.4 3087,-373.4 2879,-373.4"/>
</g>
<!-- Main93166550&#45;&gt;MyRecord634084330 -->
<g id="edge5" class="edge">
<title>Main93166550&#45;&gt;MyRecord634084330</title>
<path fill="none" stroke="black" d="M2264,-681.8C2461.21,-655.24 2870,-600.2 2870,-600.2 2870,-600.2 2887.6,-578.27 2908.91,-551.72"/>
<polygon fill="black" stroke="black" points="2911.78,-553.73 2915.31,-543.74 2906.32,-549.35 2911.78,-553.73"/>
<text text-anchor="middle" x="2826.88" y="-629.2" font-family="Times New Roman,serif" font-size="14.00">record</text>
<text text-anchor="middle" x="2826.88" y="-612.4" font-family="Times New Roman,serif" font-size="14.00">[0..1]</text>
</g>
</g>
</svg>
